<svg width="250" height="251" viewBox="0 0 250 251" fill="none" xmlns="http://www.w3.org/2000/svg">
<g clip-path="url(#clip0_19_7)">
<path d="M196.017 122.906C196.869 124.31 196.869 126.068 196.017 127.471L128.785 238.258C127.064 241.094 122.94 241.094 121.219 238.259L53.9834 127.479C53.1318 126.075 53.1318 124.317 53.9834 122.914L121.219 12.1263C122.94 9.29122 127.065 9.29122 128.785 12.1263L196.017 122.906ZM85.5948 118.476C83.811 121.414 85.9328 125.167 89.3775 125.167H160.63C164.075 125.167 166.197 121.414 164.413 118.476L128.785 59.7931C127.064 56.9588 122.94 56.9589 121.219 59.7932L85.5948 118.476ZM125.002 87.4093C131.931 87.4093 137.549 93.0208 137.549 99.942C137.548 106.862 131.93 112.47 125.002 112.47C118.073 112.47 112.456 106.862 112.455 99.942C112.455 93.0208 118.073 87.4093 125.002 87.4093Z" fill="url(#paint0_linear_19_7)"/>
</g>
<defs>
<linearGradient id="paint0_linear_19_7" x1="125" y1="99.259" x2="125" y2="202.993" gradientUnits="userSpaceOnUse">
<stop stop-color="#FE7109"/>
<stop offset="1" stop-color="#003BFF"/>
</linearGradient>
<clipPath id="clip0_19_7">
<rect width="250" height="250.385" fill="white"/>
</clipPath>
</defs>
</svg>
